<!DOCTYPE svg PUBLIC "-//W3C//DTD SVG 1.1//EN" "http://www.w3.org/Graphics/SVG/1.1/DTD/svg11.dtd">
<!-- Uploaded to: SVG Repo, www.svgrepo.com, Transformed by: SVG Repo Mixer Tools -->
<svg fill="#b1b1b1" width="800px" height="800px" viewBox="0 0 255.99316 255.99316" id="Flat" xmlns="http://www.w3.org/2000/svg" stroke="#b1b1b1">
<g id="SVGRepo_bgCarrier" stroke-width="0"/>
<g id="SVGRepo_tracerCarrier" stroke-linecap="round" stroke-linejoin="round"/>
<g id="SVGRepo_iconCarrier"> <path d="M216,35.99316H88a4.0002,4.0002,0,0,0-4,4v44.001H39.999a4.0002,4.0002,0,0,0-4,4v128a4.0002,4.0002,0,0,0,4,4h128a4.0002,4.0002,0,0,0,4-4v-44.001H216a4.0002,4.0002,0,0,0,4-4v-128A4.0002,4.0002,0,0,0,216,35.99316Zm-52.001,176.001h-120v-120h120ZM212,163.99316H171.999v-75.999a4.0002,4.0002,0,0,0-4-4H92v-40.001H212Z"/> </g>
</svg>